<mxfile host="app.diagrams.net" modified="2021-11-02T13:17:34.973Z" agent="5.0 (Windows NT 10.0; Win64; x64) AppleWebKit/537.36 (KHTML, like Gecko) Chrome/90.0.4430.72 Safari/537.36" etag="O1OGkHm64gk3dgh2TN8X" version="15.3.5" type="github">
  <diagram id="pUdZBc7lScsvuJsyhKqY" name="第 1 页">
    <mxGraphModel dx="1422" dy="762" grid="1" gridSize="10" guides="1" tooltips="1" connect="1" arrows="1" fold="1" page="1" pageScale="1" pageWidth="1169" pageHeight="827" math="0" shadow="0">
      <root>
        <mxCell id="0" />
        <mxCell id="1" parent="0" />
        <mxCell id="1E14WKFiLOETVJLrNXSf-65" value="__Vmtask__2" style="rounded=0;whiteSpace=wrap;html=1;hachureGap=4;pointerEvents=0;verticalAlign=top;" vertex="1" parent="1">
          <mxGeometry x="460" y="10" width="250" height="1470" as="geometry" />
        </mxCell>
        <mxCell id="1E14WKFiLOETVJLrNXSf-1" value="__Vmtask__1" style="rounded=0;whiteSpace=wrap;html=1;hachureGap=4;pointerEvents=0;verticalAlign=top;" vertex="1" parent="1">
          <mxGeometry x="35" y="10" width="250" height="1470" as="geometry" />
        </mxCell>
        <mxCell id="1E14WKFiLOETVJLrNXSf-2" value="mtaskId(1)" style="rounded=0;whiteSpace=wrap;html=1;hachureGap=4;pointerEvents=0;fillColor=#dae8fc;strokeColor=#6c8ebf;verticalAlign=top;" vertex="1" parent="1">
          <mxGeometry x="65" y="40" width="190" height="70" as="geometry" />
        </mxCell>
        <mxCell id="1E14WKFiLOETVJLrNXSf-3" value="_combo__TOP__2" style="rounded=1;whiteSpace=wrap;html=1;hachureGap=4;pointerEvents=0;fillColor=#fff2cc;strokeColor=#d6b656;" vertex="1" parent="1">
          <mxGeometry x="92.5" y="70" width="135" height="30" as="geometry" />
        </mxCell>
        <mxCell id="1E14WKFiLOETVJLrNXSf-4" value="mtaskId(4)" style="rounded=0;whiteSpace=wrap;html=1;hachureGap=4;pointerEvents=0;fillColor=#dae8fc;strokeColor=#6c8ebf;verticalAlign=top;" vertex="1" parent="1">
          <mxGeometry x="65" y="120" width="190" height="70" as="geometry" />
        </mxCell>
        <mxCell id="1E14WKFiLOETVJLrNXSf-5" value="_sequent__TOP__31" style="rounded=1;whiteSpace=wrap;html=1;hachureGap=4;pointerEvents=0;fillColor=#fff2cc;strokeColor=#d6b656;" vertex="1" parent="1">
          <mxGeometry x="92.5" y="150" width="135" height="30" as="geometry" />
        </mxCell>
        <mxCell id="1E14WKFiLOETVJLrNXSf-8" value="mtaskId(3)" style="rounded=0;whiteSpace=wrap;html=1;hachureGap=4;pointerEvents=0;fillColor=#dae8fc;strokeColor=#6c8ebf;verticalAlign=top;" vertex="1" parent="1">
          <mxGeometry x="65" y="200" width="190" height="70" as="geometry" />
        </mxCell>
        <mxCell id="1E14WKFiLOETVJLrNXSf-9" value="_sequent__TOP__30" style="rounded=1;whiteSpace=wrap;html=1;hachureGap=4;pointerEvents=0;fillColor=#fff2cc;strokeColor=#d6b656;" vertex="1" parent="1">
          <mxGeometry x="92.5" y="230" width="135" height="30" as="geometry" />
        </mxCell>
        <mxCell id="1E14WKFiLOETVJLrNXSf-15" value="mtaskId(12)" style="rounded=0;whiteSpace=wrap;html=1;hachureGap=4;pointerEvents=0;fillColor=#dae8fc;strokeColor=#6c8ebf;verticalAlign=top;" vertex="1" parent="1">
          <mxGeometry x="65" y="280" width="190" height="70" as="geometry" />
        </mxCell>
        <mxCell id="1E14WKFiLOETVJLrNXSf-16" value="_sequent__TOP__9" style="rounded=1;whiteSpace=wrap;html=1;hachureGap=4;pointerEvents=0;fillColor=#fff2cc;strokeColor=#d6b656;" vertex="1" parent="1">
          <mxGeometry x="92.5" y="310" width="135" height="30" as="geometry" />
        </mxCell>
        <mxCell id="1E14WKFiLOETVJLrNXSf-20" value="mtaskId(15)" style="rounded=0;whiteSpace=wrap;html=1;hachureGap=4;pointerEvents=0;fillColor=#dae8fc;strokeColor=#6c8ebf;verticalAlign=top;" vertex="1" parent="1">
          <mxGeometry x="65" y="360" width="190" height="70" as="geometry" />
        </mxCell>
        <mxCell id="1E14WKFiLOETVJLrNXSf-21" value="_sequent__TOP__13" style="rounded=1;whiteSpace=wrap;html=1;hachureGap=4;pointerEvents=0;fillColor=#fff2cc;strokeColor=#d6b656;" vertex="1" parent="1">
          <mxGeometry x="92.5" y="390" width="135" height="30" as="geometry" />
        </mxCell>
        <mxCell id="1E14WKFiLOETVJLrNXSf-22" style="edgeStyle=orthogonalEdgeStyle;curved=1;rounded=0;orthogonalLoop=1;jettySize=auto;html=1;entryX=1;entryY=0.25;entryDx=0;entryDy=0;endArrow=open;startSize=14;endSize=14;sourcePerimeterSpacing=8;targetPerimeterSpacing=8;exitX=0;exitY=0.75;exitDx=0;exitDy=0;" edge="1" parent="1" target="1E14WKFiLOETVJLrNXSf-23" source="1E14WKFiLOETVJLrNXSf-68">
          <mxGeometry relative="1" as="geometry">
            <mxPoint x="585" y="560" as="sourcePoint" />
          </mxGeometry>
        </mxCell>
        <mxCell id="1E14WKFiLOETVJLrNXSf-23" value="mtaskId(9)" style="rounded=0;whiteSpace=wrap;html=1;hachureGap=4;pointerEvents=0;fillColor=#dae8fc;strokeColor=#6c8ebf;verticalAlign=top;" vertex="1" parent="1">
          <mxGeometry x="65" y="440" width="190" height="150" as="geometry" />
        </mxCell>
        <mxCell id="1E14WKFiLOETVJLrNXSf-24" value="_sequent__TOP__51" style="rounded=1;whiteSpace=wrap;html=1;hachureGap=4;pointerEvents=0;fillColor=#fff2cc;strokeColor=#d6b656;" vertex="1" parent="1">
          <mxGeometry x="92.5" y="470" width="135" height="30" as="geometry" />
        </mxCell>
        <mxCell id="1E14WKFiLOETVJLrNXSf-25" value="_sequent__TOP__52" style="rounded=1;whiteSpace=wrap;html=1;hachureGap=4;pointerEvents=0;fillColor=#fff2cc;strokeColor=#d6b656;" vertex="1" parent="1">
          <mxGeometry x="92.5" y="510" width="135" height="30" as="geometry" />
        </mxCell>
        <mxCell id="1E14WKFiLOETVJLrNXSf-26" value="_sequent__TOP__53" style="rounded=1;whiteSpace=wrap;html=1;hachureGap=4;pointerEvents=0;fillColor=#fff2cc;strokeColor=#d6b656;" vertex="1" parent="1">
          <mxGeometry x="92.5" y="550" width="135" height="30" as="geometry" />
        </mxCell>
        <mxCell id="1E14WKFiLOETVJLrNXSf-27" style="edgeStyle=orthogonalEdgeStyle;curved=1;rounded=0;orthogonalLoop=1;jettySize=auto;html=1;entryX=1;entryY=0.25;entryDx=0;entryDy=0;endArrow=open;startSize=14;endSize=14;sourcePerimeterSpacing=8;targetPerimeterSpacing=8;exitX=0;exitY=0.75;exitDx=0;exitDy=0;" edge="1" parent="1" target="1E14WKFiLOETVJLrNXSf-28" source="1E14WKFiLOETVJLrNXSf-79">
          <mxGeometry relative="1" as="geometry">
            <mxPoint x="585" y="757" as="sourcePoint" />
          </mxGeometry>
        </mxCell>
        <mxCell id="1E14WKFiLOETVJLrNXSf-28" value="mtaskId(22)" style="rounded=0;whiteSpace=wrap;html=1;hachureGap=4;pointerEvents=0;fillColor=#dae8fc;strokeColor=#6c8ebf;verticalAlign=top;" vertex="1" parent="1">
          <mxGeometry x="65" y="600" width="190" height="70" as="geometry" />
        </mxCell>
        <mxCell id="1E14WKFiLOETVJLrNXSf-29" value="_sequent__TOP__28" style="rounded=1;whiteSpace=wrap;html=1;hachureGap=4;pointerEvents=0;fillColor=#fff2cc;strokeColor=#d6b656;" vertex="1" parent="1">
          <mxGeometry x="92.5" y="630" width="135" height="30" as="geometry" />
        </mxCell>
        <mxCell id="1E14WKFiLOETVJLrNXSf-40" value="23" style="edgeStyle=orthogonalEdgeStyle;curved=1;rounded=0;orthogonalLoop=1;jettySize=auto;html=1;exitX=1;exitY=0.75;exitDx=0;exitDy=0;endArrow=open;startSize=14;endSize=14;sourcePerimeterSpacing=8;targetPerimeterSpacing=8;entryX=0;entryY=0.25;entryDx=0;entryDy=0;" edge="1" parent="1" source="1E14WKFiLOETVJLrNXSf-31" target="1E14WKFiLOETVJLrNXSf-98">
          <mxGeometry relative="1" as="geometry">
            <mxPoint x="400" y="900" as="targetPoint" />
          </mxGeometry>
        </mxCell>
        <mxCell id="1E14WKFiLOETVJLrNXSf-31" value="mtaskId(21)" style="rounded=0;whiteSpace=wrap;html=1;hachureGap=4;pointerEvents=0;fillColor=#dae8fc;strokeColor=#6c8ebf;verticalAlign=top;" vertex="1" parent="1">
          <mxGeometry x="65" y="680" width="190" height="230" as="geometry" />
        </mxCell>
        <mxCell id="1E14WKFiLOETVJLrNXSf-32" value="_sequent__TOP__23" style="rounded=1;whiteSpace=wrap;html=1;hachureGap=4;pointerEvents=0;fillColor=#fff2cc;strokeColor=#d6b656;" vertex="1" parent="1">
          <mxGeometry x="92.5" y="710" width="135" height="30" as="geometry" />
        </mxCell>
        <mxCell id="1E14WKFiLOETVJLrNXSf-33" value="_combo__TOP__24" style="rounded=1;whiteSpace=wrap;html=1;hachureGap=4;pointerEvents=0;fillColor=#fff2cc;strokeColor=#d6b656;" vertex="1" parent="1">
          <mxGeometry x="92.5" y="750" width="135" height="30" as="geometry" />
        </mxCell>
        <mxCell id="1E14WKFiLOETVJLrNXSf-34" value="_sequent__TOP__25" style="rounded=1;whiteSpace=wrap;html=1;hachureGap=4;pointerEvents=0;fillColor=#fff2cc;strokeColor=#d6b656;" vertex="1" parent="1">
          <mxGeometry x="92.5" y="790" width="135" height="30" as="geometry" />
        </mxCell>
        <mxCell id="1E14WKFiLOETVJLrNXSf-38" value="_combo__TOP__26" style="rounded=1;whiteSpace=wrap;html=1;hachureGap=4;pointerEvents=0;fillColor=#fff2cc;strokeColor=#d6b656;" vertex="1" parent="1">
          <mxGeometry x="92.5" y="830" width="135" height="30" as="geometry" />
        </mxCell>
        <mxCell id="1E14WKFiLOETVJLrNXSf-39" value="_sequent__TOP__27" style="rounded=1;whiteSpace=wrap;html=1;hachureGap=4;pointerEvents=0;fillColor=#fff2cc;strokeColor=#d6b656;" vertex="1" parent="1">
          <mxGeometry x="92.5" y="870" width="135" height="30" as="geometry" />
        </mxCell>
        <mxCell id="1E14WKFiLOETVJLrNXSf-41" style="edgeStyle=orthogonalEdgeStyle;curved=1;rounded=0;orthogonalLoop=1;jettySize=auto;html=1;entryX=1;entryY=0.25;entryDx=0;entryDy=0;endArrow=open;startSize=14;endSize=14;sourcePerimeterSpacing=8;targetPerimeterSpacing=8;exitX=0;exitY=0.75;exitDx=0;exitDy=0;" edge="1" parent="1" target="1E14WKFiLOETVJLrNXSf-42" source="1E14WKFiLOETVJLrNXSf-83">
          <mxGeometry relative="1" as="geometry">
            <mxPoint x="585" y="1107" as="sourcePoint" />
          </mxGeometry>
        </mxCell>
        <mxCell id="1E14WKFiLOETVJLrNXSf-42" value="mtaskId(25)" style="rounded=0;whiteSpace=wrap;html=1;hachureGap=4;pointerEvents=0;fillColor=#dae8fc;strokeColor=#6c8ebf;verticalAlign=top;" vertex="1" parent="1">
          <mxGeometry x="65" y="920" width="190" height="150" as="geometry" />
        </mxCell>
        <mxCell id="1E14WKFiLOETVJLrNXSf-43" value="_sequent__TOP__56" style="rounded=1;whiteSpace=wrap;html=1;hachureGap=4;pointerEvents=0;fillColor=#fff2cc;strokeColor=#d6b656;" vertex="1" parent="1">
          <mxGeometry x="92.5" y="950" width="135" height="30" as="geometry" />
        </mxCell>
        <mxCell id="1E14WKFiLOETVJLrNXSf-44" value="_combo__TOP__57" style="rounded=1;whiteSpace=wrap;html=1;hachureGap=4;pointerEvents=0;fillColor=#fff2cc;strokeColor=#d6b656;" vertex="1" parent="1">
          <mxGeometry x="92.5" y="990" width="135" height="30" as="geometry" />
        </mxCell>
        <mxCell id="1E14WKFiLOETVJLrNXSf-45" value="_sequent__TOP__58" style="rounded=1;whiteSpace=wrap;html=1;hachureGap=4;pointerEvents=0;fillColor=#fff2cc;strokeColor=#d6b656;" vertex="1" parent="1">
          <mxGeometry x="92.5" y="1030" width="135" height="30" as="geometry" />
        </mxCell>
        <mxCell id="1E14WKFiLOETVJLrNXSf-48" style="edgeStyle=orthogonalEdgeStyle;curved=1;rounded=0;orthogonalLoop=1;jettySize=auto;html=1;entryX=1;entryY=0.25;entryDx=0;entryDy=0;endArrow=open;startSize=14;endSize=14;sourcePerimeterSpacing=8;targetPerimeterSpacing=8;exitX=0;exitY=0.75;exitDx=0;exitDy=0;" edge="1" parent="1" target="1E14WKFiLOETVJLrNXSf-49" source="1E14WKFiLOETVJLrNXSf-86">
          <mxGeometry relative="1" as="geometry">
            <mxPoint x="585" y="1270" as="sourcePoint" />
          </mxGeometry>
        </mxCell>
        <mxCell id="1E14WKFiLOETVJLrNXSf-49" value="mtaskId(20)" style="rounded=0;whiteSpace=wrap;html=1;hachureGap=4;pointerEvents=0;fillColor=#dae8fc;strokeColor=#6c8ebf;verticalAlign=top;" vertex="1" parent="1">
          <mxGeometry x="65" y="1080" width="190" height="70" as="geometry" />
        </mxCell>
        <mxCell id="1E14WKFiLOETVJLrNXSf-50" value="_sequent__TOP__92" style="rounded=1;whiteSpace=wrap;html=1;hachureGap=4;pointerEvents=0;fillColor=#fff2cc;strokeColor=#d6b656;" vertex="1" parent="1">
          <mxGeometry x="92.5" y="1110" width="135" height="30" as="geometry" />
        </mxCell>
        <mxCell id="1E14WKFiLOETVJLrNXSf-52" value="30" style="edgeStyle=orthogonalEdgeStyle;curved=1;rounded=0;orthogonalLoop=1;jettySize=auto;html=1;exitX=1;exitY=0.75;exitDx=0;exitDy=0;endArrow=open;startSize=14;endSize=14;sourcePerimeterSpacing=8;targetPerimeterSpacing=8;entryX=0;entryY=0.25;entryDx=0;entryDy=0;" edge="1" parent="1" source="1E14WKFiLOETVJLrNXSf-49" target="1E14WKFiLOETVJLrNXSf-109">
          <mxGeometry relative="1" as="geometry">
            <mxPoint x="325" y="1446" as="targetPoint" />
            <mxPoint x="265" y="1362.5" as="sourcePoint" />
          </mxGeometry>
        </mxCell>
        <mxCell id="1E14WKFiLOETVJLrNXSf-58" value="31" style="edgeStyle=orthogonalEdgeStyle;curved=1;rounded=0;orthogonalLoop=1;jettySize=auto;html=1;exitX=1;exitY=0.75;exitDx=0;exitDy=0;endArrow=open;startSize=14;endSize=14;sourcePerimeterSpacing=8;targetPerimeterSpacing=8;entryX=0;entryY=0.25;entryDx=0;entryDy=0;" edge="1" parent="1" source="1E14WKFiLOETVJLrNXSf-54" target="1E14WKFiLOETVJLrNXSf-112">
          <mxGeometry relative="1" as="geometry">
            <mxPoint x="370" y="1380" as="targetPoint" />
          </mxGeometry>
        </mxCell>
        <mxCell id="1E14WKFiLOETVJLrNXSf-54" value="mtaskId(19)" style="rounded=0;whiteSpace=wrap;html=1;hachureGap=4;pointerEvents=0;fillColor=#dae8fc;strokeColor=#6c8ebf;verticalAlign=top;" vertex="1" parent="1">
          <mxGeometry x="65" y="1160" width="190" height="150" as="geometry" />
        </mxCell>
        <mxCell id="1E14WKFiLOETVJLrNXSf-55" value="_sequent__TOP__112" style="rounded=1;whiteSpace=wrap;html=1;hachureGap=4;pointerEvents=0;fillColor=#fff2cc;strokeColor=#d6b656;" vertex="1" parent="1">
          <mxGeometry x="92.5" y="1190" width="135" height="30" as="geometry" />
        </mxCell>
        <mxCell id="1E14WKFiLOETVJLrNXSf-56" value="_multiclk__TOP__113" style="rounded=1;whiteSpace=wrap;html=1;hachureGap=4;pointerEvents=0;fillColor=#fff2cc;strokeColor=#d6b656;" vertex="1" parent="1">
          <mxGeometry x="92.5" y="1230" width="135" height="30" as="geometry" />
        </mxCell>
        <mxCell id="1E14WKFiLOETVJLrNXSf-57" value="_sequent__TOP__114" style="rounded=1;whiteSpace=wrap;html=1;hachureGap=4;pointerEvents=0;fillColor=#fff2cc;strokeColor=#d6b656;" vertex="1" parent="1">
          <mxGeometry x="92.5" y="1270" width="135" height="30" as="geometry" />
        </mxCell>
        <mxCell id="1E14WKFiLOETVJLrNXSf-59" style="edgeStyle=orthogonalEdgeStyle;curved=1;rounded=0;orthogonalLoop=1;jettySize=auto;html=1;entryX=1;entryY=0.25;entryDx=0;entryDy=0;endArrow=open;startSize=14;endSize=14;sourcePerimeterSpacing=8;targetPerimeterSpacing=8;exitX=0;exitY=0.75;exitDx=0;exitDy=0;" edge="1" parent="1" target="1E14WKFiLOETVJLrNXSf-60" source="1E14WKFiLOETVJLrNXSf-98">
          <mxGeometry relative="1" as="geometry">
            <mxPoint x="585" y="1440" as="sourcePoint" />
          </mxGeometry>
        </mxCell>
        <mxCell id="1E14WKFiLOETVJLrNXSf-64" value="final" style="edgeStyle=orthogonalEdgeStyle;curved=1;rounded=0;orthogonalLoop=1;jettySize=auto;html=1;exitX=1;exitY=0.75;exitDx=0;exitDy=0;endArrow=open;startSize=14;endSize=14;sourcePerimeterSpacing=8;targetPerimeterSpacing=8;entryX=0.25;entryY=0;entryDx=0;entryDy=0;" edge="1" parent="1" source="1E14WKFiLOETVJLrNXSf-60" target="1E14WKFiLOETVJLrNXSf-170">
          <mxGeometry relative="1" as="geometry">
            <mxPoint x="460" y="1560" as="targetPoint" />
          </mxGeometry>
        </mxCell>
        <mxCell id="1E14WKFiLOETVJLrNXSf-60" value="mtaskId(29)" style="rounded=0;whiteSpace=wrap;html=1;hachureGap=4;pointerEvents=0;fillColor=#dae8fc;strokeColor=#6c8ebf;verticalAlign=top;" vertex="1" parent="1">
          <mxGeometry x="65" y="1320" width="190" height="150" as="geometry" />
        </mxCell>
        <mxCell id="1E14WKFiLOETVJLrNXSf-61" value="_combo__TOP__107" style="rounded=1;whiteSpace=wrap;html=1;hachureGap=4;pointerEvents=0;fillColor=#fff2cc;strokeColor=#d6b656;" vertex="1" parent="1">
          <mxGeometry x="92.5" y="1350" width="135" height="30" as="geometry" />
        </mxCell>
        <mxCell id="1E14WKFiLOETVJLrNXSf-62" value="_sequent__TOP__108" style="rounded=1;whiteSpace=wrap;html=1;hachureGap=4;pointerEvents=0;fillColor=#fff2cc;strokeColor=#d6b656;" vertex="1" parent="1">
          <mxGeometry x="92.5" y="1390" width="135" height="30" as="geometry" />
        </mxCell>
        <mxCell id="1E14WKFiLOETVJLrNXSf-63" value="_combo__TOP__109" style="rounded=1;whiteSpace=wrap;html=1;hachureGap=4;pointerEvents=0;fillColor=#fff2cc;strokeColor=#d6b656;" vertex="1" parent="1">
          <mxGeometry x="92.5" y="1430" width="135" height="30" as="geometry" />
        </mxCell>
        <mxCell id="1E14WKFiLOETVJLrNXSf-66" value="mtaskId(2)" style="rounded=0;whiteSpace=wrap;html=1;hachureGap=4;pointerEvents=0;fillColor=#dae8fc;strokeColor=#6c8ebf;verticalAlign=top;" vertex="1" parent="1">
          <mxGeometry x="490" y="40" width="190" height="70" as="geometry" />
        </mxCell>
        <mxCell id="1E14WKFiLOETVJLrNXSf-67" value="_combo__TOP__3" style="rounded=1;whiteSpace=wrap;html=1;hachureGap=4;pointerEvents=0;fillColor=#fff2cc;strokeColor=#d6b656;" vertex="1" parent="1">
          <mxGeometry x="517.5" y="70" width="135" height="30" as="geometry" />
        </mxCell>
        <mxCell id="1E14WKFiLOETVJLrNXSf-74" value="22" style="edgeStyle=orthogonalEdgeStyle;curved=1;rounded=0;orthogonalLoop=1;jettySize=auto;html=1;exitX=0;exitY=0.75;exitDx=0;exitDy=0;endArrow=open;startSize=14;endSize=14;sourcePerimeterSpacing=8;targetPerimeterSpacing=8;entryX=1;entryY=0.25;entryDx=0;entryDy=0;exitPerimeter=0;" edge="1" parent="1" source="1E14WKFiLOETVJLrNXSf-68" target="1E14WKFiLOETVJLrNXSf-28">
          <mxGeometry relative="1" as="geometry">
            <mxPoint x="840" y="1290" as="targetPoint" />
          </mxGeometry>
        </mxCell>
        <mxCell id="1E14WKFiLOETVJLrNXSf-68" value="mtaskId(18)" style="rounded=0;whiteSpace=wrap;html=1;hachureGap=4;pointerEvents=0;fillColor=#dae8fc;strokeColor=#6c8ebf;verticalAlign=top;" vertex="1" parent="1">
          <mxGeometry x="490" y="120" width="190" height="190" as="geometry" />
        </mxCell>
        <mxCell id="1E14WKFiLOETVJLrNXSf-69" value="_sequent__TOP__17" style="rounded=1;whiteSpace=wrap;html=1;hachureGap=4;pointerEvents=0;fillColor=#fff2cc;strokeColor=#d6b656;" vertex="1" parent="1">
          <mxGeometry x="517.5" y="150" width="135" height="30" as="geometry" />
        </mxCell>
        <mxCell id="1E14WKFiLOETVJLrNXSf-70" value="_sequent__TOP__18" style="rounded=1;whiteSpace=wrap;html=1;hachureGap=4;pointerEvents=0;fillColor=#fff2cc;strokeColor=#d6b656;" vertex="1" parent="1">
          <mxGeometry x="517.5" y="190" width="135" height="30" as="geometry" />
        </mxCell>
        <mxCell id="1E14WKFiLOETVJLrNXSf-71" value="_sequent__TOP__21" style="rounded=1;whiteSpace=wrap;html=1;hachureGap=4;pointerEvents=0;fillColor=#fff2cc;strokeColor=#d6b656;" vertex="1" parent="1">
          <mxGeometry x="517.5" y="230" width="135" height="30" as="geometry" />
        </mxCell>
        <mxCell id="1E14WKFiLOETVJLrNXSf-72" value="_sequent__TOP__22" style="rounded=1;whiteSpace=wrap;html=1;hachureGap=4;pointerEvents=0;fillColor=#fff2cc;strokeColor=#d6b656;" vertex="1" parent="1">
          <mxGeometry x="517.5" y="270" width="135" height="30" as="geometry" />
        </mxCell>
        <mxCell id="1E14WKFiLOETVJLrNXSf-73" style="rounded=0;orthogonalLoop=1;jettySize=auto;html=1;endArrow=open;startSize=14;endSize=14;sourcePerimeterSpacing=8;targetPerimeterSpacing=8;entryX=1;entryY=0.25;entryDx=0;entryDy=0;edgeStyle=orthogonalEdgeStyle;curved=1;exitX=0;exitY=0.75;exitDx=0;exitDy=0;" edge="1" parent="1" source="1E14WKFiLOETVJLrNXSf-117" target="1E14WKFiLOETVJLrNXSf-68">
          <mxGeometry relative="1" as="geometry">
            <mxPoint x="780" y="133.75" as="targetPoint" />
            <mxPoint x="820" y="80" as="sourcePoint" />
          </mxGeometry>
        </mxCell>
        <mxCell id="1E14WKFiLOETVJLrNXSf-75" value="8" style="edgeStyle=orthogonalEdgeStyle;curved=1;rounded=0;orthogonalLoop=1;jettySize=auto;html=1;exitX=1;exitY=0.75;exitDx=0;exitDy=0;endArrow=open;startSize=14;endSize=14;sourcePerimeterSpacing=8;targetPerimeterSpacing=8;entryX=0;entryY=0.25;entryDx=0;entryDy=0;" edge="1" parent="1" source="1E14WKFiLOETVJLrNXSf-68" target="1E14WKFiLOETVJLrNXSf-139">
          <mxGeometry relative="1" as="geometry">
            <mxPoint x="830" y="320" as="targetPoint" />
            <mxPoint x="690" y="272.5" as="sourcePoint" />
          </mxGeometry>
        </mxCell>
        <mxCell id="1E14WKFiLOETVJLrNXSf-77" value="__Vmtask__6" style="rounded=0;whiteSpace=wrap;html=1;hachureGap=4;pointerEvents=0;verticalAlign=top;" vertex="1" parent="1">
          <mxGeometry x="870" y="10" width="250" height="1830" as="geometry" />
        </mxCell>
        <mxCell id="1E14WKFiLOETVJLrNXSf-78" style="edgeStyle=orthogonalEdgeStyle;rounded=0;orthogonalLoop=1;jettySize=auto;html=1;entryX=1;entryY=0.25;entryDx=0;entryDy=0;endArrow=open;startSize=14;endSize=14;sourcePerimeterSpacing=8;targetPerimeterSpacing=8;curved=1;exitX=0;exitY=0.75;exitDx=0;exitDy=0;" edge="1" parent="1" target="1E14WKFiLOETVJLrNXSf-79" source="1E14WKFiLOETVJLrNXSf-117">
          <mxGeometry relative="1" as="geometry">
            <mxPoint x="845" y="338" as="sourcePoint" />
          </mxGeometry>
        </mxCell>
        <mxCell id="1E14WKFiLOETVJLrNXSf-79" value="mtaskId(14)" style="rounded=0;whiteSpace=wrap;html=1;hachureGap=4;pointerEvents=0;fillColor=#dae8fc;strokeColor=#6c8ebf;verticalAlign=top;" vertex="1" parent="1">
          <mxGeometry x="490" y="320" width="190" height="70" as="geometry" />
        </mxCell>
        <mxCell id="1E14WKFiLOETVJLrNXSf-80" value="_sequent__TOP__12" style="rounded=1;whiteSpace=wrap;html=1;hachureGap=4;pointerEvents=0;fillColor=#fff2cc;strokeColor=#d6b656;" vertex="1" parent="1">
          <mxGeometry x="517.5" y="350" width="135" height="30" as="geometry" />
        </mxCell>
        <mxCell id="1E14WKFiLOETVJLrNXSf-82" style="edgeStyle=orthogonalEdgeStyle;rounded=0;orthogonalLoop=1;jettySize=auto;html=1;entryX=1;entryY=0.25;entryDx=0;entryDy=0;endArrow=open;startSize=14;endSize=14;sourcePerimeterSpacing=8;targetPerimeterSpacing=8;curved=1;exitX=0;exitY=0.75;exitDx=0;exitDy=0;" edge="1" parent="1" target="1E14WKFiLOETVJLrNXSf-83" source="1E14WKFiLOETVJLrNXSf-122">
          <mxGeometry relative="1" as="geometry">
            <mxPoint x="845" y="418" as="sourcePoint" />
          </mxGeometry>
        </mxCell>
        <mxCell id="1E14WKFiLOETVJLrNXSf-83" value="mtaskId(10)" style="rounded=0;whiteSpace=wrap;html=1;hachureGap=4;pointerEvents=0;fillColor=#dae8fc;strokeColor=#6c8ebf;verticalAlign=top;" vertex="1" parent="1">
          <mxGeometry x="490" y="400" width="190" height="70" as="geometry" />
        </mxCell>
        <mxCell id="1E14WKFiLOETVJLrNXSf-84" value="_sequent__TOP__54" style="rounded=1;whiteSpace=wrap;html=1;hachureGap=4;pointerEvents=0;fillColor=#fff2cc;strokeColor=#d6b656;" vertex="1" parent="1">
          <mxGeometry x="517.5" y="430" width="135" height="30" as="geometry" />
        </mxCell>
        <mxCell id="1E14WKFiLOETVJLrNXSf-85" style="edgeStyle=orthogonalEdgeStyle;rounded=0;orthogonalLoop=1;jettySize=auto;html=1;entryX=1;entryY=0.25;entryDx=0;entryDy=0;endArrow=open;startSize=14;endSize=14;sourcePerimeterSpacing=8;targetPerimeterSpacing=8;curved=1;exitX=0;exitY=0.75;exitDx=0;exitDy=0;" edge="1" parent="1" target="1E14WKFiLOETVJLrNXSf-86" source="1E14WKFiLOETVJLrNXSf-129">
          <mxGeometry relative="1" as="geometry">
            <mxPoint x="845" y="498" as="sourcePoint" />
          </mxGeometry>
        </mxCell>
        <mxCell id="1E14WKFiLOETVJLrNXSf-96" value="7" style="edgeStyle=orthogonalEdgeStyle;curved=1;rounded=0;orthogonalLoop=1;jettySize=auto;html=1;exitX=1;exitY=0.75;exitDx=0;exitDy=0;endArrow=open;startSize=14;endSize=14;sourcePerimeterSpacing=8;targetPerimeterSpacing=8;entryX=0;entryY=0.25;entryDx=0;entryDy=0;" edge="1" parent="1" source="1E14WKFiLOETVJLrNXSf-86" target="1E14WKFiLOETVJLrNXSf-158">
          <mxGeometry relative="1" as="geometry">
            <mxPoint x="830" y="830" as="targetPoint" />
          </mxGeometry>
        </mxCell>
        <mxCell id="1E14WKFiLOETVJLrNXSf-86" value="mtaskId(27)" style="rounded=0;whiteSpace=wrap;html=1;hachureGap=4;pointerEvents=0;fillColor=#dae8fc;strokeColor=#6c8ebf;verticalAlign=top;" vertex="1" parent="1">
          <mxGeometry x="490" y="480" width="190" height="390" as="geometry" />
        </mxCell>
        <mxCell id="1E14WKFiLOETVJLrNXSf-87" value="_combo__TOP__59" style="rounded=1;whiteSpace=wrap;html=1;hachureGap=4;pointerEvents=0;fillColor=#fff2cc;strokeColor=#d6b656;" vertex="1" parent="1">
          <mxGeometry x="517.5" y="510" width="135" height="30" as="geometry" />
        </mxCell>
        <mxCell id="1E14WKFiLOETVJLrNXSf-88" value="_sequent__TOP__60" style="rounded=1;whiteSpace=wrap;html=1;hachureGap=4;pointerEvents=0;fillColor=#fff2cc;strokeColor=#d6b656;" vertex="1" parent="1">
          <mxGeometry x="517.5" y="550" width="135" height="30" as="geometry" />
        </mxCell>
        <mxCell id="1E14WKFiLOETVJLrNXSf-89" value="_sequent__TOP__62" style="rounded=1;whiteSpace=wrap;html=1;hachureGap=4;pointerEvents=0;fillColor=#fff2cc;strokeColor=#d6b656;" vertex="1" parent="1">
          <mxGeometry x="517" y="590" width="135" height="30" as="geometry" />
        </mxCell>
        <mxCell id="1E14WKFiLOETVJLrNXSf-90" value="_sequent__TOP__63" style="rounded=1;whiteSpace=wrap;html=1;hachureGap=4;pointerEvents=0;fillColor=#fff2cc;strokeColor=#d6b656;" vertex="1" parent="1">
          <mxGeometry x="517" y="630" width="135" height="30" as="geometry" />
        </mxCell>
        <mxCell id="1E14WKFiLOETVJLrNXSf-91" value="_sequent__TOP__65" style="rounded=1;whiteSpace=wrap;html=1;hachureGap=4;pointerEvents=0;fillColor=#fff2cc;strokeColor=#d6b656;" vertex="1" parent="1">
          <mxGeometry x="517.5" y="670" width="135" height="30" as="geometry" />
        </mxCell>
        <mxCell id="1E14WKFiLOETVJLrNXSf-92" value="_combo__TOP__68" style="rounded=1;whiteSpace=wrap;html=1;hachureGap=4;pointerEvents=0;fillColor=#fff2cc;strokeColor=#d6b656;" vertex="1" parent="1">
          <mxGeometry x="517.5" y="710" width="135" height="30" as="geometry" />
        </mxCell>
        <mxCell id="1E14WKFiLOETVJLrNXSf-93" value="_sequent__TOP__69" style="rounded=1;whiteSpace=wrap;html=1;hachureGap=4;pointerEvents=0;fillColor=#fff2cc;strokeColor=#d6b656;" vertex="1" parent="1">
          <mxGeometry x="517.5" y="750" width="135" height="30" as="geometry" />
        </mxCell>
        <mxCell id="1E14WKFiLOETVJLrNXSf-94" value="_sequent__TOP__71" style="rounded=1;whiteSpace=wrap;html=1;hachureGap=4;pointerEvents=0;fillColor=#fff2cc;strokeColor=#d6b656;" vertex="1" parent="1">
          <mxGeometry x="517" y="790" width="135" height="30" as="geometry" />
        </mxCell>
        <mxCell id="1E14WKFiLOETVJLrNXSf-95" value="_combo__TOP__72" style="rounded=1;whiteSpace=wrap;html=1;hachureGap=4;pointerEvents=0;fillColor=#fff2cc;strokeColor=#d6b656;" vertex="1" parent="1">
          <mxGeometry x="517" y="830" width="135" height="30" as="geometry" />
        </mxCell>
        <mxCell id="1E14WKFiLOETVJLrNXSf-97" style="edgeStyle=orthogonalEdgeStyle;rounded=0;orthogonalLoop=1;jettySize=auto;html=1;entryX=1;entryY=0.25;entryDx=0;entryDy=0;endArrow=open;startSize=14;endSize=14;sourcePerimeterSpacing=8;targetPerimeterSpacing=8;curved=1;exitX=0;exitY=0.75;exitDx=0;exitDy=0;" edge="1" parent="1" target="1E14WKFiLOETVJLrNXSf-98" source="1E14WKFiLOETVJLrNXSf-147">
          <mxGeometry relative="1" as="geometry">
            <mxPoint x="845" y="898" as="sourcePoint" />
          </mxGeometry>
        </mxCell>
        <mxCell id="1E14WKFiLOETVJLrNXSf-100" value="24" style="edgeStyle=orthogonalEdgeStyle;curved=1;rounded=0;orthogonalLoop=1;jettySize=auto;html=1;exitX=1;exitY=0.75;exitDx=0;exitDy=0;endArrow=open;startSize=14;endSize=14;sourcePerimeterSpacing=8;targetPerimeterSpacing=8;entryX=0;entryY=0.25;entryDx=0;entryDy=0;" edge="1" parent="1" source="1E14WKFiLOETVJLrNXSf-98" target="1E14WKFiLOETVJLrNXSf-165">
          <mxGeometry relative="1" as="geometry">
            <mxPoint x="790" y="970" as="targetPoint" />
          </mxGeometry>
        </mxCell>
        <mxCell id="1E14WKFiLOETVJLrNXSf-98" value="mtaskId(23)" style="rounded=0;whiteSpace=wrap;html=1;hachureGap=4;pointerEvents=0;fillColor=#dae8fc;strokeColor=#6c8ebf;verticalAlign=top;" vertex="1" parent="1">
          <mxGeometry x="490" y="880" width="190" height="70" as="geometry" />
        </mxCell>
        <mxCell id="1E14WKFiLOETVJLrNXSf-99" value="_sequent__TOP__29" style="rounded=1;whiteSpace=wrap;html=1;hachureGap=4;pointerEvents=0;fillColor=#fff2cc;strokeColor=#d6b656;" vertex="1" parent="1">
          <mxGeometry x="517.5" y="910" width="135" height="30" as="geometry" />
        </mxCell>
        <mxCell id="1E14WKFiLOETVJLrNXSf-101" style="edgeStyle=orthogonalEdgeStyle;rounded=0;orthogonalLoop=1;jettySize=auto;html=1;entryX=1;entryY=0.25;entryDx=0;entryDy=0;endArrow=open;startSize=14;endSize=14;sourcePerimeterSpacing=8;targetPerimeterSpacing=8;curved=1;exitX=0;exitY=0.75;exitDx=0;exitDy=0;" edge="1" parent="1" target="1E14WKFiLOETVJLrNXSf-102" source="1E14WKFiLOETVJLrNXSf-153">
          <mxGeometry relative="1" as="geometry">
            <mxPoint x="845" y="978" as="sourcePoint" />
          </mxGeometry>
        </mxCell>
        <mxCell id="1E14WKFiLOETVJLrNXSf-102" value="mtaskId(26)" style="rounded=0;whiteSpace=wrap;html=1;hachureGap=4;pointerEvents=0;fillColor=#dae8fc;strokeColor=#6c8ebf;verticalAlign=top;" vertex="1" parent="1">
          <mxGeometry x="490" y="960" width="190" height="230" as="geometry" />
        </mxCell>
        <mxCell id="1E14WKFiLOETVJLrNXSf-103" value="_combo__TOP__97" style="rounded=1;whiteSpace=wrap;html=1;hachureGap=4;pointerEvents=0;fillColor=#fff2cc;strokeColor=#d6b656;" vertex="1" parent="1">
          <mxGeometry x="517.5" y="990" width="135" height="30" as="geometry" />
        </mxCell>
        <mxCell id="1E14WKFiLOETVJLrNXSf-104" value="_combo__TOP__100" style="rounded=1;whiteSpace=wrap;html=1;hachureGap=4;pointerEvents=0;fillColor=#fff2cc;strokeColor=#d6b656;" vertex="1" parent="1">
          <mxGeometry x="517.5" y="1030" width="135" height="30" as="geometry" />
        </mxCell>
        <mxCell id="1E14WKFiLOETVJLrNXSf-105" value="_combo__TOP__102" style="rounded=1;whiteSpace=wrap;html=1;hachureGap=4;pointerEvents=0;fillColor=#fff2cc;strokeColor=#d6b656;" vertex="1" parent="1">
          <mxGeometry x="517.5" y="1070" width="135" height="30" as="geometry" />
        </mxCell>
        <mxCell id="1E14WKFiLOETVJLrNXSf-106" value="_sequent__TOP__103" style="rounded=1;whiteSpace=wrap;html=1;hachureGap=4;pointerEvents=0;fillColor=#fff2cc;strokeColor=#d6b656;" vertex="1" parent="1">
          <mxGeometry x="517.5" y="1110" width="135" height="30" as="geometry" />
        </mxCell>
        <mxCell id="1E14WKFiLOETVJLrNXSf-107" value="_combo__TOP__104" style="rounded=1;whiteSpace=wrap;html=1;hachureGap=4;pointerEvents=0;fillColor=#fff2cc;strokeColor=#d6b656;" vertex="1" parent="1">
          <mxGeometry x="517.5" y="1150" width="135" height="30" as="geometry" />
        </mxCell>
        <mxCell id="1E14WKFiLOETVJLrNXSf-109" value="mtaskId(30)" style="rounded=0;whiteSpace=wrap;html=1;hachureGap=4;pointerEvents=0;fillColor=#dae8fc;strokeColor=#6c8ebf;verticalAlign=top;" vertex="1" parent="1">
          <mxGeometry x="490" y="1200" width="190" height="110" as="geometry" />
        </mxCell>
        <mxCell id="1E14WKFiLOETVJLrNXSf-110" value="_multiclk__TOP__110" style="rounded=1;whiteSpace=wrap;html=1;hachureGap=4;pointerEvents=0;fillColor=#fff2cc;strokeColor=#d6b656;" vertex="1" parent="1">
          <mxGeometry x="517.5" y="1230" width="135" height="30" as="geometry" />
        </mxCell>
        <mxCell id="1E14WKFiLOETVJLrNXSf-111" value="_sequent__TOP__111" style="rounded=1;whiteSpace=wrap;html=1;hachureGap=4;pointerEvents=0;fillColor=#fff2cc;strokeColor=#d6b656;" vertex="1" parent="1">
          <mxGeometry x="517.5" y="1270" width="135" height="30" as="geometry" />
        </mxCell>
        <mxCell id="1E14WKFiLOETVJLrNXSf-116" value="final" style="edgeStyle=orthogonalEdgeStyle;curved=1;rounded=0;orthogonalLoop=1;jettySize=auto;html=1;exitX=1;exitY=0.75;exitDx=0;exitDy=0;endArrow=open;startSize=14;endSize=14;sourcePerimeterSpacing=8;targetPerimeterSpacing=8;entryX=0.75;entryY=0;entryDx=0;entryDy=0;" edge="1" parent="1" source="1E14WKFiLOETVJLrNXSf-112" target="1E14WKFiLOETVJLrNXSf-170">
          <mxGeometry relative="1" as="geometry">
            <mxPoint x="760" y="1530" as="targetPoint" />
          </mxGeometry>
        </mxCell>
        <mxCell id="1E14WKFiLOETVJLrNXSf-112" value="mtaskId(31)" style="rounded=0;whiteSpace=wrap;html=1;hachureGap=4;pointerEvents=0;fillColor=#dae8fc;strokeColor=#6c8ebf;verticalAlign=top;" vertex="1" parent="1">
          <mxGeometry x="490" y="1320" width="190" height="150" as="geometry" />
        </mxCell>
        <mxCell id="1E14WKFiLOETVJLrNXSf-113" value="_multiclk__TOP__115" style="rounded=1;whiteSpace=wrap;html=1;hachureGap=4;pointerEvents=0;fillColor=#fff2cc;strokeColor=#d6b656;" vertex="1" parent="1">
          <mxGeometry x="517.5" y="1350" width="135" height="30" as="geometry" />
        </mxCell>
        <mxCell id="1E14WKFiLOETVJLrNXSf-114" value="_sequent__TOP__116" style="rounded=1;whiteSpace=wrap;html=1;hachureGap=4;pointerEvents=0;fillColor=#fff2cc;strokeColor=#d6b656;" vertex="1" parent="1">
          <mxGeometry x="517.5" y="1390" width="135" height="30" as="geometry" />
        </mxCell>
        <mxCell id="1E14WKFiLOETVJLrNXSf-115" value="_combo__TOP__117" style="rounded=1;whiteSpace=wrap;html=1;hachureGap=4;pointerEvents=0;fillColor=#fff2cc;strokeColor=#d6b656;" vertex="1" parent="1">
          <mxGeometry x="517.5" y="1430" width="135" height="30" as="geometry" />
        </mxCell>
        <mxCell id="1E14WKFiLOETVJLrNXSf-117" value="mtaskId(6)" style="rounded=0;whiteSpace=wrap;html=1;hachureGap=4;pointerEvents=0;fillColor=#dae8fc;strokeColor=#6c8ebf;verticalAlign=top;" vertex="1" parent="1">
          <mxGeometry x="900" y="40" width="190" height="190" as="geometry" />
        </mxCell>
        <mxCell id="1E14WKFiLOETVJLrNXSf-118" value="_combo__TOP__4" style="rounded=1;whiteSpace=wrap;html=1;hachureGap=4;pointerEvents=0;fillColor=#fff2cc;strokeColor=#d6b656;" vertex="1" parent="1">
          <mxGeometry x="927.5" y="70" width="135" height="30" as="geometry" />
        </mxCell>
        <mxCell id="1E14WKFiLOETVJLrNXSf-119" value="_sequent__TOP__5" style="rounded=1;whiteSpace=wrap;html=1;hachureGap=4;pointerEvents=0;fillColor=#fff2cc;strokeColor=#d6b656;" vertex="1" parent="1">
          <mxGeometry x="927.5" y="110" width="135" height="30" as="geometry" />
        </mxCell>
        <mxCell id="1E14WKFiLOETVJLrNXSf-120" value="_combo__TOP__6" style="rounded=1;whiteSpace=wrap;html=1;hachureGap=4;pointerEvents=0;fillColor=#fff2cc;strokeColor=#d6b656;" vertex="1" parent="1">
          <mxGeometry x="927.5" y="150" width="135" height="30" as="geometry" />
        </mxCell>
        <mxCell id="1E14WKFiLOETVJLrNXSf-121" value="_sequent__TOP__7" style="rounded=1;whiteSpace=wrap;html=1;hachureGap=4;pointerEvents=0;fillColor=#fff2cc;strokeColor=#d6b656;" vertex="1" parent="1">
          <mxGeometry x="927.5" y="190" width="135" height="30" as="geometry" />
        </mxCell>
        <mxCell id="1E14WKFiLOETVJLrNXSf-14" style="edgeStyle=orthogonalEdgeStyle;curved=1;rounded=0;orthogonalLoop=1;jettySize=auto;html=1;entryX=1;entryY=0.25;entryDx=0;entryDy=0;endArrow=open;startSize=14;endSize=14;sourcePerimeterSpacing=8;targetPerimeterSpacing=8;exitX=0;exitY=0.75;exitDx=0;exitDy=0;" edge="1" parent="1" target="1E14WKFiLOETVJLrNXSf-15" source="1E14WKFiLOETVJLrNXSf-117">
          <mxGeometry relative="1" as="geometry">
            <mxPoint x="430" y="300" as="sourcePoint" />
          </mxGeometry>
        </mxCell>
        <mxCell id="1E14WKFiLOETVJLrNXSf-19" style="edgeStyle=orthogonalEdgeStyle;curved=1;rounded=0;orthogonalLoop=1;jettySize=auto;html=1;entryX=1;entryY=0.25;entryDx=0;entryDy=0;endArrow=open;startSize=14;endSize=14;sourcePerimeterSpacing=8;targetPerimeterSpacing=8;exitX=0;exitY=0.75;exitDx=0;exitDy=0;" edge="1" parent="1" target="1E14WKFiLOETVJLrNXSf-20" source="1E14WKFiLOETVJLrNXSf-117">
          <mxGeometry relative="1" as="geometry">
            <mxPoint x="440" y="360" as="sourcePoint" />
          </mxGeometry>
        </mxCell>
        <mxCell id="1E14WKFiLOETVJLrNXSf-11" style="edgeStyle=orthogonalEdgeStyle;rounded=0;orthogonalLoop=1;jettySize=auto;html=1;entryX=1;entryY=0.25;entryDx=0;entryDy=0;endArrow=open;startSize=14;endSize=14;sourcePerimeterSpacing=8;targetPerimeterSpacing=8;curved=1;exitX=0;exitY=0.75;exitDx=0;exitDy=0;" edge="1" parent="1" source="1E14WKFiLOETVJLrNXSf-117" target="1E14WKFiLOETVJLrNXSf-8">
          <mxGeometry relative="1" as="geometry">
            <mxPoint x="420" y="218" as="sourcePoint" />
          </mxGeometry>
        </mxCell>
        <mxCell id="1E14WKFiLOETVJLrNXSf-6" style="rounded=0;orthogonalLoop=1;jettySize=auto;html=1;endArrow=open;startSize=14;endSize=14;sourcePerimeterSpacing=8;targetPerimeterSpacing=8;entryX=1;entryY=0.25;entryDx=0;entryDy=0;edgeStyle=orthogonalEdgeStyle;curved=1;exitX=0;exitY=0.75;exitDx=0;exitDy=0;" edge="1" parent="1" source="1E14WKFiLOETVJLrNXSf-117" target="1E14WKFiLOETVJLrNXSf-4">
          <mxGeometry relative="1" as="geometry">
            <mxPoint x="415" y="110" as="targetPoint" />
            <mxPoint x="385" y="60" as="sourcePoint" />
          </mxGeometry>
        </mxCell>
        <mxCell id="1E14WKFiLOETVJLrNXSf-122" value="mtaskId(13)" style="rounded=0;whiteSpace=wrap;html=1;hachureGap=4;pointerEvents=0;fillColor=#dae8fc;strokeColor=#6c8ebf;verticalAlign=top;" vertex="1" parent="1">
          <mxGeometry x="900" y="240" width="190" height="110" as="geometry" />
        </mxCell>
        <mxCell id="1E14WKFiLOETVJLrNXSf-123" value="_sequent__TOP__10" style="rounded=1;whiteSpace=wrap;html=1;hachureGap=4;pointerEvents=0;fillColor=#fff2cc;strokeColor=#d6b656;" vertex="1" parent="1">
          <mxGeometry x="927.5" y="270" width="135" height="30" as="geometry" />
        </mxCell>
        <mxCell id="1E14WKFiLOETVJLrNXSf-124" value="_sequent__TOP__11" style="rounded=1;whiteSpace=wrap;html=1;hachureGap=4;pointerEvents=0;fillColor=#fff2cc;strokeColor=#d6b656;" vertex="1" parent="1">
          <mxGeometry x="927.5" y="310" width="135" height="30" as="geometry" />
        </mxCell>
        <mxCell id="1E14WKFiLOETVJLrNXSf-30" style="edgeStyle=orthogonalEdgeStyle;curved=1;rounded=0;orthogonalLoop=1;jettySize=auto;html=1;entryX=1;entryY=0.25;entryDx=0;entryDy=0;endArrow=open;startSize=14;endSize=14;sourcePerimeterSpacing=8;targetPerimeterSpacing=8;exitX=0;exitY=0.75;exitDx=0;exitDy=0;" edge="1" parent="1" target="1E14WKFiLOETVJLrNXSf-31" source="1E14WKFiLOETVJLrNXSf-122">
          <mxGeometry relative="1" as="geometry">
            <mxPoint x="425" y="690" as="sourcePoint" />
          </mxGeometry>
        </mxCell>
        <mxCell id="1E14WKFiLOETVJLrNXSf-128" style="edgeStyle=orthogonalEdgeStyle;curved=1;rounded=0;orthogonalLoop=1;jettySize=auto;html=1;exitX=0;exitY=0.75;exitDx=0;exitDy=0;entryX=1;entryY=0.25;entryDx=0;entryDy=0;endArrow=open;startSize=14;endSize=14;sourcePerimeterSpacing=8;targetPerimeterSpacing=8;" edge="1" parent="1" source="1E14WKFiLOETVJLrNXSf-125" target="1E14WKFiLOETVJLrNXSf-42">
          <mxGeometry relative="1" as="geometry" />
        </mxCell>
        <mxCell id="1E14WKFiLOETVJLrNXSf-125" value="mtaskId(11)" style="rounded=0;whiteSpace=wrap;html=1;hachureGap=4;pointerEvents=0;fillColor=#dae8fc;strokeColor=#6c8ebf;verticalAlign=top;" vertex="1" parent="1">
          <mxGeometry x="900" y="360" width="190" height="70" as="geometry" />
        </mxCell>
        <mxCell id="1E14WKFiLOETVJLrNXSf-126" value="_sequent__TOP__8" style="rounded=1;whiteSpace=wrap;html=1;hachureGap=4;pointerEvents=0;fillColor=#fff2cc;strokeColor=#d6b656;" vertex="1" parent="1">
          <mxGeometry x="927.5" y="390" width="135" height="30" as="geometry" />
        </mxCell>
        <mxCell id="1E14WKFiLOETVJLrNXSf-127" style="edgeStyle=orthogonalEdgeStyle;curved=1;rounded=0;orthogonalLoop=1;jettySize=auto;html=1;entryX=1;entryY=0.25;entryDx=0;entryDy=0;endArrow=open;startSize=14;endSize=14;sourcePerimeterSpacing=8;targetPerimeterSpacing=8;exitX=0;exitY=0.75;exitDx=0;exitDy=0;" edge="1" parent="1" source="1E14WKFiLOETVJLrNXSf-125" target="1E14WKFiLOETVJLrNXSf-31">
          <mxGeometry relative="1" as="geometry">
            <mxPoint x="910" y="332.5" as="sourcePoint" />
            <mxPoint x="265" y="747.5" as="targetPoint" />
          </mxGeometry>
        </mxCell>
        <mxCell id="1E14WKFiLOETVJLrNXSf-129" value="mtaskId(5)" style="rounded=0;whiteSpace=wrap;html=1;hachureGap=4;pointerEvents=0;fillColor=#dae8fc;strokeColor=#6c8ebf;verticalAlign=top;" vertex="1" parent="1">
          <mxGeometry x="900" y="440" width="190" height="350" as="geometry" />
        </mxCell>
        <mxCell id="1E14WKFiLOETVJLrNXSf-130" value="_combo__TOP__32" style="rounded=1;whiteSpace=wrap;html=1;hachureGap=4;pointerEvents=0;fillColor=#fff2cc;strokeColor=#d6b656;" vertex="1" parent="1">
          <mxGeometry x="927.5" y="470" width="135" height="30" as="geometry" />
        </mxCell>
        <mxCell id="1E14WKFiLOETVJLrNXSf-131" value="_sequent__TOP__34" style="rounded=1;whiteSpace=wrap;html=1;hachureGap=4;pointerEvents=0;fillColor=#fff2cc;strokeColor=#d6b656;" vertex="1" parent="1">
          <mxGeometry x="927.5" y="510" width="135" height="30" as="geometry" />
        </mxCell>
        <mxCell id="1E14WKFiLOETVJLrNXSf-132" value="_sequent__TOP__36" style="rounded=1;whiteSpace=wrap;html=1;hachureGap=4;pointerEvents=0;fillColor=#fff2cc;strokeColor=#d6b656;" vertex="1" parent="1">
          <mxGeometry x="927.5" y="550" width="135" height="30" as="geometry" />
        </mxCell>
        <mxCell id="1E14WKFiLOETVJLrNXSf-133" value="_sequent__TOP__37" style="rounded=1;whiteSpace=wrap;html=1;hachureGap=4;pointerEvents=0;fillColor=#fff2cc;strokeColor=#d6b656;" vertex="1" parent="1">
          <mxGeometry x="927.5" y="590" width="135" height="30" as="geometry" />
        </mxCell>
        <mxCell id="1E14WKFiLOETVJLrNXSf-134" value="_sequent__TOP__38" style="rounded=1;whiteSpace=wrap;html=1;hachureGap=4;pointerEvents=0;fillColor=#fff2cc;strokeColor=#d6b656;" vertex="1" parent="1">
          <mxGeometry x="927.5" y="630" width="135" height="30" as="geometry" />
        </mxCell>
        <mxCell id="1E14WKFiLOETVJLrNXSf-135" value="_sequent__TOP__42" style="rounded=1;whiteSpace=wrap;html=1;hachureGap=4;pointerEvents=0;fillColor=#fff2cc;strokeColor=#d6b656;" vertex="1" parent="1">
          <mxGeometry x="927.5" y="670" width="135" height="30" as="geometry" />
        </mxCell>
        <mxCell id="1E14WKFiLOETVJLrNXSf-136" value="_sequent__TOP__43" style="rounded=1;whiteSpace=wrap;html=1;hachureGap=4;pointerEvents=0;fillColor=#fff2cc;strokeColor=#d6b656;" vertex="1" parent="1">
          <mxGeometry x="927.5" y="710" width="135" height="30" as="geometry" />
        </mxCell>
        <mxCell id="1E14WKFiLOETVJLrNXSf-137" value="_sequent__TOP__44" style="rounded=1;whiteSpace=wrap;html=1;hachureGap=4;pointerEvents=0;fillColor=#fff2cc;strokeColor=#d6b656;" vertex="1" parent="1">
          <mxGeometry x="927.5" y="750" width="135" height="30" as="geometry" />
        </mxCell>
        <mxCell id="1E14WKFiLOETVJLrNXSf-139" value="mtaskId(8)" style="rounded=0;whiteSpace=wrap;html=1;hachureGap=4;pointerEvents=0;fillColor=#dae8fc;strokeColor=#6c8ebf;verticalAlign=top;" vertex="1" parent="1">
          <mxGeometry x="900" y="800" width="190" height="230" as="geometry" />
        </mxCell>
        <mxCell id="1E14WKFiLOETVJLrNXSf-140" value="_sequent__TOP__45" style="rounded=1;whiteSpace=wrap;html=1;hachureGap=4;pointerEvents=0;fillColor=#fff2cc;strokeColor=#d6b656;" vertex="1" parent="1">
          <mxGeometry x="927.5" y="830" width="135" height="30" as="geometry" />
        </mxCell>
        <mxCell id="1E14WKFiLOETVJLrNXSf-141" value="_sequent__TOP__46" style="rounded=1;whiteSpace=wrap;html=1;hachureGap=4;pointerEvents=0;fillColor=#fff2cc;strokeColor=#d6b656;" vertex="1" parent="1">
          <mxGeometry x="927.5" y="870" width="135" height="30" as="geometry" />
        </mxCell>
        <mxCell id="1E14WKFiLOETVJLrNXSf-142" value="_sequent__TOP__48" style="rounded=1;whiteSpace=wrap;html=1;hachureGap=4;pointerEvents=0;fillColor=#fff2cc;strokeColor=#d6b656;" vertex="1" parent="1">
          <mxGeometry x="927.5" y="910" width="135" height="30" as="geometry" />
        </mxCell>
        <mxCell id="1E14WKFiLOETVJLrNXSf-143" value="_sequent__TOP__49" style="rounded=1;whiteSpace=wrap;html=1;hachureGap=4;pointerEvents=0;fillColor=#fff2cc;strokeColor=#d6b656;" vertex="1" parent="1">
          <mxGeometry x="927.5" y="950" width="135" height="30" as="geometry" />
        </mxCell>
        <mxCell id="1E14WKFiLOETVJLrNXSf-144" value="_sequent__TOP__50" style="rounded=1;whiteSpace=wrap;html=1;hachureGap=4;pointerEvents=0;fillColor=#fff2cc;strokeColor=#d6b656;" vertex="1" parent="1">
          <mxGeometry x="927.5" y="990" width="135" height="30" as="geometry" />
        </mxCell>
        <mxCell id="1E14WKFiLOETVJLrNXSf-12" value="8" style="edgeStyle=orthogonalEdgeStyle;curved=1;rounded=0;orthogonalLoop=1;jettySize=auto;html=1;exitX=1;exitY=0.75;exitDx=0;exitDy=0;endArrow=open;startSize=14;endSize=14;sourcePerimeterSpacing=8;targetPerimeterSpacing=8;entryX=0;entryY=0.25;entryDx=0;entryDy=0;" edge="1" parent="1" source="1E14WKFiLOETVJLrNXSf-8" target="1E14WKFiLOETVJLrNXSf-139">
          <mxGeometry relative="1" as="geometry">
            <mxPoint x="420" y="253" as="targetPoint" />
            <mxPoint x="265" y="212.5" as="sourcePoint" />
          </mxGeometry>
        </mxCell>
        <mxCell id="1E14WKFiLOETVJLrNXSf-145" value="mtaskId(16)" style="rounded=0;whiteSpace=wrap;html=1;hachureGap=4;pointerEvents=0;fillColor=#dae8fc;strokeColor=#6c8ebf;verticalAlign=top;" vertex="1" parent="1">
          <mxGeometry x="900" y="1040" width="190" height="70" as="geometry" />
        </mxCell>
        <mxCell id="1E14WKFiLOETVJLrNXSf-146" value="_sequent__TOP__55" style="rounded=1;whiteSpace=wrap;html=1;hachureGap=4;pointerEvents=0;fillColor=#fff2cc;strokeColor=#d6b656;" vertex="1" parent="1">
          <mxGeometry x="927.5" y="1070" width="135" height="30" as="geometry" />
        </mxCell>
        <mxCell id="1E14WKFiLOETVJLrNXSf-152" style="edgeStyle=orthogonalEdgeStyle;curved=1;rounded=0;orthogonalLoop=1;jettySize=auto;html=1;exitX=0;exitY=0.75;exitDx=0;exitDy=0;entryX=1;entryY=0.25;entryDx=0;entryDy=0;endArrow=open;startSize=14;endSize=14;sourcePerimeterSpacing=8;targetPerimeterSpacing=8;" edge="1" parent="1" source="1E14WKFiLOETVJLrNXSf-147" target="1E14WKFiLOETVJLrNXSf-49">
          <mxGeometry relative="1" as="geometry" />
        </mxCell>
        <mxCell id="1E14WKFiLOETVJLrNXSf-147" value="mtaskId(17)" style="rounded=0;whiteSpace=wrap;html=1;hachureGap=4;pointerEvents=0;fillColor=#dae8fc;strokeColor=#6c8ebf;verticalAlign=top;" vertex="1" parent="1">
          <mxGeometry x="900" y="1120" width="190" height="150" as="geometry" />
        </mxCell>
        <mxCell id="1E14WKFiLOETVJLrNXSf-148" value="_sequent__TOP__14" style="rounded=1;whiteSpace=wrap;html=1;hachureGap=4;pointerEvents=0;fillColor=#fff2cc;strokeColor=#d6b656;" vertex="1" parent="1">
          <mxGeometry x="927.5" y="1150" width="135" height="30" as="geometry" />
        </mxCell>
        <mxCell id="1E14WKFiLOETVJLrNXSf-149" value="_combo__TOP__15" style="rounded=1;whiteSpace=wrap;html=1;hachureGap=4;pointerEvents=0;fillColor=#fff2cc;strokeColor=#d6b656;" vertex="1" parent="1">
          <mxGeometry x="927.5" y="1190" width="135" height="30" as="geometry" />
        </mxCell>
        <mxCell id="1E14WKFiLOETVJLrNXSf-150" value="_sequent__TOP__16" style="rounded=1;whiteSpace=wrap;html=1;hachureGap=4;pointerEvents=0;fillColor=#fff2cc;strokeColor=#d6b656;" vertex="1" parent="1">
          <mxGeometry x="927.5" y="1230" width="135" height="30" as="geometry" />
        </mxCell>
        <mxCell id="1E14WKFiLOETVJLrNXSf-157" style="edgeStyle=orthogonalEdgeStyle;curved=1;rounded=0;orthogonalLoop=1;jettySize=auto;html=1;exitX=0;exitY=0.75;exitDx=0;exitDy=0;entryX=1;entryY=0.25;entryDx=0;entryDy=0;endArrow=open;startSize=14;endSize=14;sourcePerimeterSpacing=8;targetPerimeterSpacing=8;" edge="1" parent="1" source="1E14WKFiLOETVJLrNXSf-153" target="1E14WKFiLOETVJLrNXSf-49">
          <mxGeometry relative="1" as="geometry" />
        </mxCell>
        <mxCell id="1E14WKFiLOETVJLrNXSf-153" value="mtaskId(28)" style="rounded=0;whiteSpace=wrap;html=1;hachureGap=4;pointerEvents=0;fillColor=#dae8fc;strokeColor=#6c8ebf;verticalAlign=top;" vertex="1" parent="1">
          <mxGeometry x="900" y="1280" width="190" height="150" as="geometry" />
        </mxCell>
        <mxCell id="1E14WKFiLOETVJLrNXSf-154" value="_sequent__TOP__74" style="rounded=1;whiteSpace=wrap;html=1;hachureGap=4;pointerEvents=0;fillColor=#fff2cc;strokeColor=#d6b656;" vertex="1" parent="1">
          <mxGeometry x="927.5" y="1310" width="135" height="30" as="geometry" />
        </mxCell>
        <mxCell id="1E14WKFiLOETVJLrNXSf-155" value="_sequent__TOP__76" style="rounded=1;whiteSpace=wrap;html=1;hachureGap=4;pointerEvents=0;fillColor=#fff2cc;strokeColor=#d6b656;" vertex="1" parent="1">
          <mxGeometry x="927.5" y="1350" width="135" height="30" as="geometry" />
        </mxCell>
        <mxCell id="1E14WKFiLOETVJLrNXSf-156" value="_sequent__TOP__77" style="rounded=1;whiteSpace=wrap;html=1;hachureGap=4;pointerEvents=0;fillColor=#fff2cc;strokeColor=#d6b656;" vertex="1" parent="1">
          <mxGeometry x="927.5" y="1390" width="135" height="30" as="geometry" />
        </mxCell>
        <mxCell id="1E14WKFiLOETVJLrNXSf-164" style="edgeStyle=orthogonalEdgeStyle;curved=1;rounded=0;orthogonalLoop=1;jettySize=auto;html=1;exitX=0;exitY=0.75;exitDx=0;exitDy=0;entryX=1;entryY=0.25;entryDx=0;entryDy=0;endArrow=open;startSize=14;endSize=14;sourcePerimeterSpacing=8;targetPerimeterSpacing=8;" edge="1" parent="1" source="1E14WKFiLOETVJLrNXSf-158" target="1E14WKFiLOETVJLrNXSf-112">
          <mxGeometry relative="1" as="geometry" />
        </mxCell>
        <mxCell id="1E14WKFiLOETVJLrNXSf-158" value="mtaskId(7)" style="rounded=0;whiteSpace=wrap;html=1;hachureGap=4;pointerEvents=0;fillColor=#dae8fc;strokeColor=#6c8ebf;verticalAlign=top;" vertex="1" parent="1">
          <mxGeometry x="900" y="1440" width="190" height="230" as="geometry" />
        </mxCell>
        <mxCell id="1E14WKFiLOETVJLrNXSf-159" value="_sequent__TOP__80" style="rounded=1;whiteSpace=wrap;html=1;hachureGap=4;pointerEvents=0;fillColor=#fff2cc;strokeColor=#d6b656;" vertex="1" parent="1">
          <mxGeometry x="927.5" y="1470" width="135" height="30" as="geometry" />
        </mxCell>
        <mxCell id="1E14WKFiLOETVJLrNXSf-160" value="_sequent__TOP__82" style="rounded=1;whiteSpace=wrap;html=1;hachureGap=4;pointerEvents=0;fillColor=#fff2cc;strokeColor=#d6b656;" vertex="1" parent="1">
          <mxGeometry x="927.5" y="1510" width="135" height="30" as="geometry" />
        </mxCell>
        <mxCell id="1E14WKFiLOETVJLrNXSf-161" value="_sequent__TOP__84" style="rounded=1;whiteSpace=wrap;html=1;hachureGap=4;pointerEvents=0;fillColor=#fff2cc;strokeColor=#d6b656;" vertex="1" parent="1">
          <mxGeometry x="927.5" y="1550" width="135" height="30" as="geometry" />
        </mxCell>
        <mxCell id="1E14WKFiLOETVJLrNXSf-162" value="_combo__TOP__87" style="rounded=1;whiteSpace=wrap;html=1;hachureGap=4;pointerEvents=0;fillColor=#fff2cc;strokeColor=#d6b656;" vertex="1" parent="1">
          <mxGeometry x="927.5" y="1590" width="135" height="30" as="geometry" />
        </mxCell>
        <mxCell id="1E14WKFiLOETVJLrNXSf-163" value="_combo__TOP__90" style="rounded=1;whiteSpace=wrap;html=1;hachureGap=4;pointerEvents=0;fillColor=#fff2cc;strokeColor=#d6b656;" vertex="1" parent="1">
          <mxGeometry x="927.5" y="1630" width="135" height="30" as="geometry" />
        </mxCell>
        <mxCell id="1E14WKFiLOETVJLrNXSf-169" value="final" style="edgeStyle=orthogonalEdgeStyle;curved=1;rounded=0;orthogonalLoop=1;jettySize=auto;html=1;exitX=0;exitY=0.75;exitDx=0;exitDy=0;endArrow=open;startSize=14;endSize=14;sourcePerimeterSpacing=8;targetPerimeterSpacing=8;entryX=1;entryY=0.5;entryDx=0;entryDy=0;" edge="1" parent="1" source="1E14WKFiLOETVJLrNXSf-165" target="1E14WKFiLOETVJLrNXSf-170">
          <mxGeometry relative="1" as="geometry">
            <mxPoint x="1150" y="1880" as="targetPoint" />
          </mxGeometry>
        </mxCell>
        <mxCell id="1E14WKFiLOETVJLrNXSf-165" value="mtaskId(24)" style="rounded=0;whiteSpace=wrap;html=1;hachureGap=4;pointerEvents=0;fillColor=#dae8fc;strokeColor=#6c8ebf;verticalAlign=top;" vertex="1" parent="1">
          <mxGeometry x="900" y="1680" width="190" height="150" as="geometry" />
        </mxCell>
        <mxCell id="1E14WKFiLOETVJLrNXSf-166" value="_sequent__TOP__93" style="rounded=1;whiteSpace=wrap;html=1;hachureGap=4;pointerEvents=0;fillColor=#fff2cc;strokeColor=#d6b656;" vertex="1" parent="1">
          <mxGeometry x="927.5" y="1710" width="135" height="30" as="geometry" />
        </mxCell>
        <mxCell id="1E14WKFiLOETVJLrNXSf-167" value="_combo__TOP__94" style="rounded=1;whiteSpace=wrap;html=1;hachureGap=4;pointerEvents=0;fillColor=#fff2cc;strokeColor=#d6b656;" vertex="1" parent="1">
          <mxGeometry x="927.5" y="1750" width="135" height="30" as="geometry" />
        </mxCell>
        <mxCell id="1E14WKFiLOETVJLrNXSf-168" value="_sequent__TOP__95" style="rounded=1;whiteSpace=wrap;html=1;hachureGap=4;pointerEvents=0;fillColor=#fff2cc;strokeColor=#d6b656;" vertex="1" parent="1">
          <mxGeometry x="927.5" y="1790" width="135" height="30" as="geometry" />
        </mxCell>
        <mxCell id="1E14WKFiLOETVJLrNXSf-7" value="5" style="edgeStyle=orthogonalEdgeStyle;curved=1;rounded=0;orthogonalLoop=1;jettySize=auto;html=1;exitX=1;exitY=0.75;exitDx=0;exitDy=0;endArrow=open;startSize=14;endSize=14;sourcePerimeterSpacing=8;targetPerimeterSpacing=8;entryX=0;entryY=0.25;entryDx=0;entryDy=0;" edge="1" parent="1" source="1E14WKFiLOETVJLrNXSf-4" target="1E14WKFiLOETVJLrNXSf-129">
          <mxGeometry relative="1" as="geometry">
            <mxPoint x="400" y="200" as="targetPoint" />
          </mxGeometry>
        </mxCell>
        <mxCell id="1E14WKFiLOETVJLrNXSf-17" value="17" style="edgeStyle=orthogonalEdgeStyle;curved=1;rounded=0;orthogonalLoop=1;jettySize=auto;html=1;exitX=1;exitY=0.75;exitDx=0;exitDy=0;endArrow=open;startSize=14;endSize=14;sourcePerimeterSpacing=8;targetPerimeterSpacing=8;entryX=0;entryY=0.25;entryDx=0;entryDy=0;" edge="1" parent="1" source="1E14WKFiLOETVJLrNXSf-15" target="1E14WKFiLOETVJLrNXSf-147">
          <mxGeometry relative="1" as="geometry">
            <mxPoint x="810" y="900" as="targetPoint" />
            <mxPoint x="265" y="326.5" as="sourcePoint" />
          </mxGeometry>
        </mxCell>
        <mxCell id="1E14WKFiLOETVJLrNXSf-13" value="16" style="edgeStyle=orthogonalEdgeStyle;curved=1;rounded=0;orthogonalLoop=1;jettySize=auto;html=1;exitX=1;exitY=0.75;exitDx=0;exitDy=0;endArrow=open;startSize=14;endSize=14;sourcePerimeterSpacing=8;targetPerimeterSpacing=8;entryX=0;entryY=0.25;entryDx=0;entryDy=0;" edge="1" parent="1" source="1E14WKFiLOETVJLrNXSf-8" target="1E14WKFiLOETVJLrNXSf-145">
          <mxGeometry relative="1" as="geometry">
            <mxPoint x="365" y="440" as="targetPoint" />
            <mxPoint x="265" y="322.5" as="sourcePoint" />
          </mxGeometry>
        </mxCell>
        <mxCell id="1E14WKFiLOETVJLrNXSf-18" value="28" style="edgeStyle=orthogonalEdgeStyle;curved=1;rounded=0;orthogonalLoop=1;jettySize=auto;html=1;exitX=1;exitY=0.75;exitDx=0;exitDy=0;endArrow=open;startSize=14;endSize=14;sourcePerimeterSpacing=8;targetPerimeterSpacing=8;entryX=0;entryY=0.25;entryDx=0;entryDy=0;" edge="1" parent="1" source="1E14WKFiLOETVJLrNXSf-15" target="1E14WKFiLOETVJLrNXSf-153">
          <mxGeometry relative="1" as="geometry">
            <mxPoint x="850" y="930" as="targetPoint" />
            <mxPoint x="265" y="436.5" as="sourcePoint" />
          </mxGeometry>
        </mxCell>
        <mxCell id="1E14WKFiLOETVJLrNXSf-51" value="24" style="edgeStyle=orthogonalEdgeStyle;curved=1;rounded=0;orthogonalLoop=1;jettySize=auto;html=1;exitX=1;exitY=0.75;exitDx=0;exitDy=0;endArrow=open;startSize=14;endSize=14;sourcePerimeterSpacing=8;targetPerimeterSpacing=8;entryX=0;entryY=0.25;entryDx=0;entryDy=0;" edge="1" parent="1" source="1E14WKFiLOETVJLrNXSf-49" target="1E14WKFiLOETVJLrNXSf-165">
          <mxGeometry relative="1" as="geometry">
            <mxPoint x="420" y="1250" as="targetPoint" />
            <mxPoint x="265" y="1252.5" as="sourcePoint" />
          </mxGeometry>
        </mxCell>
        <mxCell id="1E14WKFiLOETVJLrNXSf-170" value="final" style="rounded=1;whiteSpace=wrap;html=1;hachureGap=4;pointerEvents=0;fillColor=#fff2cc;strokeColor=#d6b656;" vertex="1" parent="1">
          <mxGeometry x="420" y="1720" width="135" height="30" as="geometry" />
        </mxCell>
        <mxCell id="1E14WKFiLOETVJLrNXSf-76" value="16" style="edgeStyle=orthogonalEdgeStyle;curved=1;rounded=0;orthogonalLoop=1;jettySize=auto;html=1;exitX=1;exitY=0.75;exitDx=0;exitDy=0;endArrow=open;startSize=14;endSize=14;sourcePerimeterSpacing=8;targetPerimeterSpacing=8;entryX=0;entryY=0.25;entryDx=0;entryDy=0;" edge="1" parent="1" source="1E14WKFiLOETVJLrNXSf-68" target="1E14WKFiLOETVJLrNXSf-145">
          <mxGeometry relative="1" as="geometry">
            <mxPoint x="780" y="780" as="targetPoint" />
            <mxPoint x="690" y="272.5" as="sourcePoint" />
          </mxGeometry>
        </mxCell>
      </root>
    </mxGraphModel>
  </diagram>
</mxfile>
